<svg width="269" height="75" viewBox="0 0 269 75" fill="none" xmlns="http://www.w3.org/2000/svg">
<rect width="18" height="69" rx="5" fill="#1976D2"/>
<path d="M40.6093 10.5276C39.7205 7.9131 41.1194 5.07313 43.7339 4.18431L51.3082 1.60935C53.9227 0.720536 56.7626 2.11945 57.6515 4.73393L76.2337 59.3938C77.1225 62.0082 75.7235 64.8482 73.1091 65.737L65.5348 68.312C62.9203 69.2008 60.0804 67.8019 59.1915 65.1874L40.6093 10.5276Z" fill="black"/>
<rect x="22" width="18" height="69" rx="5" fill="black"/>
<rect y="70" width="82" height="5" fill="black"/>
<path d="M98.032 51H94.928V28.072H98.032V51ZM119.401 30.68H111.977V51H108.889V30.68H101.449V28.072H119.401V30.68ZM144.166 48.472L144.15 51H130.022V28.072H144.15V30.6H133.126V38.216H142.054V40.648H133.126V48.472H144.166ZM167.067 28.072V51H165.515C165.269 51 165.061 50.9573 164.891 50.872C164.731 50.7867 164.571 50.6427 164.411 50.44L151.147 33.16C151.168 33.4267 151.184 33.688 151.195 33.944C151.205 34.2 151.211 34.44 151.211 34.664V51H148.491V28.072H150.091C150.229 28.072 150.347 28.0827 150.443 28.104C150.539 28.1147 150.624 28.1413 150.699 28.184C150.773 28.216 150.848 28.2693 150.923 28.344C150.997 28.408 151.077 28.4933 151.163 28.6L164.427 45.864C164.405 45.5867 164.384 45.32 164.363 45.064C164.352 44.7973 164.347 44.5467 164.347 44.312V28.072H167.067ZM191.552 39.976V48.776C190.4 49.608 189.168 50.232 187.856 50.648C186.555 51.0533 185.125 51.256 183.568 51.256C181.723 51.256 180.059 50.9733 178.576 50.408C177.093 49.832 175.824 49.032 174.768 48.008C173.723 46.9733 172.917 45.736 172.352 44.296C171.787 42.856 171.504 41.272 171.504 39.544C171.504 37.7947 171.776 36.2 172.32 34.76C172.875 33.32 173.659 32.088 174.672 31.064C175.685 30.0293 176.917 29.2293 178.368 28.664C179.819 28.0987 181.44 27.816 183.232 27.816C184.139 27.816 184.981 27.8853 185.76 28.024C186.539 28.152 187.259 28.344 187.92 28.6C188.581 28.8453 189.195 29.1493 189.76 29.512C190.325 29.864 190.853 30.264 191.344 30.712L190.464 32.12C190.325 32.3333 190.144 32.472 189.92 32.536C189.707 32.5893 189.467 32.536 189.2 32.376C188.944 32.2267 188.651 32.0453 188.32 31.832C187.989 31.6187 187.584 31.416 187.104 31.224C186.635 31.0213 186.075 30.8507 185.424 30.712C184.784 30.5733 184.021 30.504 183.136 30.504C181.845 30.504 180.677 30.7173 179.632 31.144C178.587 31.56 177.696 32.1627 176.96 32.952C176.224 33.7307 175.659 34.68 175.264 35.8C174.869 36.9093 174.672 38.1573 174.672 39.544C174.672 40.984 174.875 42.2747 175.28 43.416C175.696 44.5467 176.283 45.512 177.04 46.312C177.808 47.1013 178.736 47.704 179.824 48.12C180.912 48.536 182.133 48.744 183.488 48.744C184.555 48.744 185.499 48.6267 186.32 48.392C187.152 48.1467 187.963 47.8107 188.752 47.384V42.344H185.184C184.981 42.344 184.816 42.2853 184.688 42.168C184.571 42.0507 184.512 41.9067 184.512 41.736V39.976H191.552ZM209.311 48.392V51H196.303V28.072H199.391V48.392H209.311ZM215.845 51H212.741V28.072H215.845V51ZM233.437 31.656C233.341 31.816 233.235 31.9387 233.117 32.024C233.011 32.0987 232.877 32.136 232.717 32.136C232.536 32.136 232.323 32.0453 232.077 31.864C231.832 31.6827 231.523 31.4853 231.149 31.272C230.787 31.048 230.344 30.8453 229.821 30.664C229.309 30.4827 228.685 30.392 227.949 30.392C227.256 30.392 226.643 30.488 226.109 30.68C225.587 30.8613 225.144 31.112 224.781 31.432C224.429 31.752 224.163 32.1307 223.981 32.568C223.8 32.9947 223.709 33.4587 223.709 33.96C223.709 34.6 223.864 35.1333 224.173 35.56C224.493 35.976 224.909 36.3333 225.421 36.632C225.944 36.9307 226.531 37.192 227.181 37.416C227.843 37.6293 228.515 37.8533 229.197 38.088C229.891 38.3227 230.563 38.5893 231.213 38.888C231.875 39.176 232.461 39.544 232.973 39.992C233.496 40.44 233.912 40.9893 234.221 41.64C234.541 42.2907 234.701 43.0907 234.701 44.04C234.701 45.0427 234.531 45.9867 234.189 46.872C233.848 47.7467 233.347 48.5093 232.685 49.16C232.035 49.8107 231.229 50.3227 230.269 50.696C229.32 51.0693 228.237 51.256 227.021 51.256C225.528 51.256 224.173 50.9893 222.957 50.456C221.741 49.912 220.701 49.1813 219.837 48.264L220.733 46.792C220.819 46.6747 220.92 46.5787 221.037 46.504C221.165 46.4187 221.304 46.376 221.453 46.376C221.592 46.376 221.747 46.4347 221.917 46.552C222.099 46.6587 222.301 46.7973 222.525 46.968C222.749 47.1387 223.005 47.3253 223.293 47.528C223.581 47.7307 223.907 47.9173 224.269 48.088C224.643 48.2587 225.064 48.4027 225.533 48.52C226.003 48.6267 226.531 48.68 227.117 48.68C227.853 48.68 228.509 48.5787 229.085 48.376C229.661 48.1733 230.147 47.8907 230.541 47.528C230.947 47.1547 231.256 46.712 231.469 46.2C231.683 45.688 231.789 45.1173 231.789 44.488C231.789 43.7947 231.629 43.2293 231.309 42.792C231 42.344 230.589 41.9707 230.077 41.672C229.565 41.3733 228.979 41.1227 228.317 40.92C227.656 40.7067 226.984 40.4933 226.301 40.28C225.619 40.056 224.947 39.8 224.285 39.512C223.624 39.224 223.037 38.8507 222.525 38.392C222.013 37.9333 221.597 37.3627 221.277 36.68C220.968 35.9867 220.813 35.1333 220.813 34.12C220.813 33.3093 220.968 32.5253 221.277 31.768C221.597 31.0107 222.056 30.3387 222.653 29.752C223.261 29.1653 224.003 28.696 224.877 28.344C225.763 27.992 226.776 27.816 227.917 27.816C229.197 27.816 230.36 28.0187 231.405 28.424C232.461 28.8293 233.389 29.416 234.189 30.184L233.437 31.656ZM257.66 28.072V51H254.556V40.568H242.188V51H239.084V28.072H242.188V38.296H254.556V28.072H257.66Z" fill="black"/>
<path d="M102.118 63.384V72H101.47C101.37 72 101.286 71.982 101.218 71.946C101.154 71.91 101.088 71.852 101.02 71.772L96.154 65.478C96.162 65.586 96.168 65.692 96.172 65.796C96.18 65.9 96.184 65.998 96.184 66.09V72H95.062V63.384H95.722C95.834 63.384 95.918 63.398 95.974 63.426C96.03 63.45 96.092 63.508 96.16 63.6L101.038 69.9C101.026 69.784 101.016 69.672 101.008 69.564C101.004 69.452 101.002 69.348 101.002 69.252V63.384H102.118ZM109.596 70.962L109.59 72H104.25V63.384H109.59V64.422H105.534V67.152H108.798V68.154H105.534V70.962H109.596ZM122.425 63.384L119.737 72H118.585L116.485 65.61C116.437 65.482 116.395 65.328 116.359 65.148C116.315 65.332 116.273 65.486 116.233 65.61L114.109 72H112.963L110.275 63.384H111.343C111.455 63.384 111.549 63.412 111.625 63.468C111.701 63.52 111.751 63.592 111.775 63.684L113.473 69.45C113.505 69.562 113.533 69.684 113.557 69.816C113.585 69.948 113.613 70.086 113.641 70.23C113.669 70.086 113.697 69.948 113.725 69.816C113.757 69.684 113.793 69.562 113.833 69.45L115.777 63.684C115.801 63.604 115.851 63.534 115.927 63.474C116.007 63.414 116.101 63.384 116.209 63.384H116.575C116.687 63.384 116.779 63.412 116.851 63.468C116.923 63.524 116.975 63.596 117.007 63.684L118.945 69.45C119.017 69.67 119.081 69.92 119.137 70.2C119.185 69.924 119.237 69.674 119.293 69.45L120.997 63.684C121.017 63.604 121.067 63.534 121.147 63.474C121.227 63.414 121.321 63.384 121.429 63.384H122.425ZM137.648 63.384L134.96 72H133.808L131.708 65.61C131.66 65.482 131.618 65.328 131.582 65.148C131.538 65.332 131.496 65.486 131.456 65.61L129.332 72H128.186L125.498 63.384H126.566C126.678 63.384 126.772 63.412 126.848 63.468C126.924 63.52 126.974 63.592 126.998 63.684L128.696 69.45C128.728 69.562 128.756 69.684 128.78 69.816C128.808 69.948 128.836 70.086 128.864 70.23C128.892 70.086 128.92 69.948 128.948 69.816C128.98 69.684 129.016 69.562 129.056 69.45L131 63.684C131.024 63.604 131.074 63.534 131.15 63.474C131.23 63.414 131.324 63.384 131.432 63.384H131.798C131.91 63.384 132.002 63.412 132.074 63.468C132.146 63.524 132.198 63.596 132.23 63.684L134.168 69.45C134.24 69.67 134.304 69.92 134.36 70.2C134.408 69.924 134.46 69.674 134.516 69.45L136.22 63.684C136.24 63.604 136.29 63.534 136.37 63.474C136.45 63.414 136.544 63.384 136.652 63.384H137.648ZM142.917 68.79L141.639 65.448C141.547 65.22 141.455 64.932 141.363 64.584C141.319 64.756 141.273 64.916 141.225 65.064C141.181 65.212 141.137 65.344 141.093 65.46L139.821 68.79H142.917ZM145.443 72H144.459C144.347 72 144.255 71.972 144.183 71.916C144.111 71.86 144.059 71.788 144.027 71.7L143.265 69.702H139.467L138.705 71.7C138.677 71.776 138.625 71.846 138.549 71.91C138.473 71.97 138.381 72 138.273 72H137.289L140.721 63.384H142.011L145.443 72ZM149.018 68.592V72H147.746V68.592L144.59 63.384H145.712C145.824 63.384 145.914 63.412 145.982 63.468C146.05 63.52 146.106 63.59 146.15 63.678L148.022 66.9C148.098 67.048 148.166 67.188 148.226 67.32C148.29 67.452 148.346 67.582 148.394 67.71C148.438 67.582 148.488 67.452 148.544 67.32C148.604 67.188 148.672 67.048 148.748 66.9L150.614 63.678C150.654 63.606 150.708 63.54 150.776 63.48C150.848 63.416 150.938 63.384 151.046 63.384H152.174L149.018 68.592ZM161.288 64.452H158.552V72H157.28V64.452H154.532V63.384H161.288V64.452ZM170.192 67.692C170.192 68.336 170.088 68.928 169.88 69.468C169.676 70.004 169.386 70.468 169.01 70.86C168.634 71.248 168.184 71.55 167.66 71.766C167.136 71.982 166.554 72.09 165.914 72.09C165.278 72.09 164.696 71.982 164.168 71.766C163.644 71.55 163.194 71.248 162.818 70.86C162.446 70.468 162.156 70.004 161.948 69.468C161.74 68.928 161.636 68.336 161.636 67.692C161.636 67.052 161.74 66.462 161.948 65.922C162.156 65.382 162.446 64.918 162.818 64.53C163.194 64.138 163.644 63.834 164.168 63.618C164.696 63.398 165.278 63.288 165.914 63.288C166.554 63.288 167.136 63.398 167.66 63.618C168.184 63.834 168.634 64.138 169.01 64.53C169.386 64.918 169.676 65.382 169.88 65.922C170.088 66.462 170.192 67.052 170.192 67.692ZM168.884 67.692C168.884 67.18 168.814 66.72 168.674 66.312C168.534 65.904 168.334 65.558 168.074 65.274C167.818 64.99 167.506 64.772 167.138 64.62C166.774 64.468 166.366 64.392 165.914 64.392C165.462 64.392 165.052 64.468 164.684 64.62C164.32 64.772 164.008 64.99 163.748 65.274C163.488 65.558 163.288 65.904 163.148 66.312C163.008 66.72 162.938 67.18 162.938 67.692C162.938 68.208 163.008 68.67 163.148 69.078C163.288 69.482 163.488 69.826 163.748 70.11C164.008 70.394 164.32 70.612 164.684 70.764C165.052 70.912 165.462 70.986 165.914 70.986C166.366 70.986 166.774 70.912 167.138 70.764C167.506 70.612 167.818 70.394 168.074 70.11C168.334 69.826 168.534 69.482 168.674 69.078C168.814 68.67 168.884 68.208 168.884 67.692ZM179.764 70.926V72H174.832V63.384H176.11V70.926H179.764ZM186.353 70.962L186.347 72H181.007V63.384H186.347V64.422H182.291V67.152H185.555V68.154H182.291V70.962H186.353ZM192.511 68.79L191.233 65.448C191.141 65.22 191.049 64.932 190.957 64.584C190.913 64.756 190.867 64.916 190.819 65.064C190.775 65.212 190.731 65.344 190.687 65.46L189.415 68.79H192.511ZM195.037 72H194.053C193.941 72 193.849 71.972 193.777 71.916C193.705 71.86 193.653 71.788 193.621 71.7L192.859 69.702H189.061L188.299 71.7C188.271 71.776 188.219 71.846 188.143 71.91C188.067 71.97 187.975 72 187.867 72H186.883L190.315 63.384H191.605L195.037 72ZM198.555 67.536C198.883 67.536 199.171 67.496 199.419 67.416C199.671 67.336 199.881 67.224 200.049 67.08C200.217 66.932 200.343 66.758 200.427 66.558C200.511 66.354 200.553 66.13 200.553 65.886C200.553 65.39 200.389 65.016 200.061 64.764C199.737 64.512 199.249 64.386 198.597 64.386H197.391V67.536H198.555ZM202.575 72H201.435C201.207 72 201.041 71.91 200.937 71.73L198.807 68.742C198.739 68.642 198.665 68.572 198.585 68.532C198.505 68.488 198.385 68.466 198.225 68.466H197.391V72H196.113V63.384H198.597C199.153 63.384 199.631 63.442 200.031 63.558C200.435 63.67 200.767 63.832 201.027 64.044C201.291 64.252 201.485 64.504 201.609 64.8C201.737 65.096 201.801 65.428 201.801 65.796C201.801 66.096 201.755 66.378 201.663 66.642C201.571 66.906 201.435 67.144 201.255 67.356C201.079 67.564 200.863 67.744 200.607 67.896C200.351 68.048 200.061 68.164 199.737 68.244C199.897 68.34 200.035 68.474 200.151 68.646L202.575 72ZM210.739 63.384V72H210.091C209.991 72 209.907 71.982 209.839 71.946C209.775 71.91 209.709 71.852 209.641 71.772L204.775 65.478C204.783 65.586 204.789 65.692 204.793 65.796C204.801 65.9 204.805 65.998 204.805 66.09V72H203.683V63.384H204.343C204.455 63.384 204.539 63.398 204.595 63.426C204.651 63.45 204.713 63.508 204.781 63.6L209.659 69.9C209.647 69.784 209.637 69.672 209.629 69.564C209.625 69.452 209.623 69.348 209.623 69.252V63.384H210.739Z" fill="#1976D2"/>
</svg>
